<?xml version="1.0" encoding="utf-8"?>
<!-- Generator: Adobe Illustrator 19.2.1, SVG Export Plug-In . SVG Version: 6.00 Build 0)  -->
<svg version="1.1" id="Layer_1" xmlns="http://www.w3.org/2000/svg" xmlns:xlink="http://www.w3.org/1999/xlink" x="0px" y="0px"
	 viewBox="0 0 512 512" style="enable-background:new 0 0 512 512;" xml:space="preserve">
<path d="M473.9,256.7c0-22.6-3.5-44.4-9.8-64.9l-97.3,252.5C430.9,406.4,473.9,336.6,473.9,256.7L473.9,256.7z"/>
<path d="M187.2,463.3c21.7,7.3,44.8,11.2,69,11.2c25.2,0,49.4-4.3,71.9-12.2L261.6,290L187.2,463.3L187.2,463.3z"/>
<path d="M47.3,195.2c-5.8,19.5-8.9,40.2-8.9,61.5c0,81.6,44.9,152.7,111.3,189.9L47.9,196.6L47.3,195.2L47.3,195.2z"/>
<path d="M158.2,181.2l-9.4-0.4c-20.4-0.3-18.1,20.8-18.1,20.8l72.4,181.6l48.7-116.3l-27.2-69.2c-10.9-18.3-37.4-18.1-37.4-18.1V170
	h152.2l-0.2,10.7l-15.8,1c-19.7,0-15.7,18.8-15.7,18.8l66.1,176.5l18.9-48.9c33.6-76.1,12.9-132.5,12.9-132.5
	c-33.6-69.2,8.9-79.1,8.9-79.1c2.7-0.4,5.2-0.6,7.7-0.7C382.1,68.8,322.6,39,256.2,39c-89.8,0-167,54.4-200.2,132.1l101.9-1.1
	L158.2,181.2L158.2,181.2z"/>
<path d="M500.8,256C500.8,391,391,500.8,256,500.8C121.1,500.8,11.2,391,11.2,256C11.2,121,121.1,11.3,256,11.3
	C391,11.3,500.8,121,500.8,256z M256,0C114.9,0,0,114.9,0,256S114.9,512,256,512C397.2,512,512,397.2,512,256
	C512,114.9,397.2,0,256,0z"/>
</svg>
